<svg data-v-423bf9ae="" xmlns="http://www.w3.org/2000/svg" viewBox="0 0 591 90" class="iconLeft"><!----><!----><!----><g data-v-423bf9ae="" id="e580dd25-1ba6-4c81-8535-053d490ffc89" fill="#D1A103" transform="matrix(5.870841333886128,0,0,5.870841333886128,164.05469876893798,10.890409884568058)"><path d="M3.00 10.92L3.00 10.92Q1.96 10.92 1.29 10.39L1.29 10.39L1.29 10.39Q0.62 9.86 0.62 8.92L0.62 8.92L0.62 8.92Q0.62 8.50 0.80 8.20L0.80 8.20L0.80 8.20Q0.98 7.91 1.25 7.76L1.25 7.76L1.25 7.76Q1.53 7.62 1.78 7.62L1.78 7.62L1.78 7.62Q2.18 7.62 2.38 7.82L2.38 7.82L2.38 7.82Q2.58 8.02 2.58 8.32L2.58 8.32L2.58 8.32Q2.58 8.61 2.42 8.77L2.42 8.77L2.42 8.77Q2.25 8.93 1.90 9.04L1.90 9.04L1.90 9.04Q1.67 9.11 1.56 9.21L1.56 9.21L1.56 9.21Q1.46 9.31 1.46 9.52L1.46 9.52L1.46 9.52Q1.46 9.95 1.90 10.21L1.90 10.21L1.90 10.21Q2.35 10.47 3.00 10.47L3.00 10.47L3.00 10.47Q3.68 10.47 4.06 9.94L4.06 9.94L4.06 9.94Q4.44 9.41 4.44 8.67L4.44 8.67L4.44 1.53L4.44 1.53Q4.44 1.33 4.35 1.24L4.35 1.24L4.35 1.24Q4.26 1.15 4.06 1.15L4.06 1.15L3.05 1.15L3.05 0.70L7.11 0.70L7.11 1.15L6.10 1.15L6.10 1.15Q5.91 1.15 5.82 1.24L5.82 1.24L5.82 1.24Q5.73 1.33 5.73 1.53L5.73 1.53L5.73 7.95L5.73 7.95Q5.73 8.88 5.35 9.55L5.35 9.55L5.35 9.55Q4.97 10.22 4.35 10.57L4.35 10.57L4.35 10.57Q3.72 10.92 3.00 10.92L3.00 10.92ZM10.02 10.84L10.02 10.84Q9.28 10.84 8.74 10.47L8.74 10.47L8.74 10.47Q8.20 10.11 8.20 9.18L8.20 9.18L8.20 9.18Q8.20 8.47 8.57 8.06L8.57 8.06L8.57 8.06Q8.93 7.66 9.42 7.48L9.42 7.48L9.42 7.48Q9.90 7.31 10.58 7.18L10.58 7.18L11.87 6.94L11.87 5.75L11.87 5.75Q11.87 4.45 10.57 4.45L10.57 4.45L10.57 4.45Q10.09 4.45 9.70 4.70L9.70 4.70L9.70 4.70Q9.31 4.94 9.31 5.25L9.31 5.25L9.31 5.25Q9.31 5.39 9.35 5.46L9.35 5.46L9.35 5.46Q9.38 5.50 9.44 5.54L9.44 5.54L9.44 5.54Q9.51 5.59 9.56 5.60L9.56 5.60L9.56 5.60Q9.81 5.67 9.95 5.80L9.95 5.80L9.95 5.80Q10.08 5.92 10.08 6.15L10.08 6.15L10.08 6.15Q10.08 6.44 9.91 6.57L9.91 6.57L9.91 6.57Q9.73 6.69 9.46 6.69L9.46 6.69L9.46 6.69Q9.16 6.69 8.90 6.45L8.90 6.45L8.90 6.45Q8.65 6.22 8.65 5.77L8.65 5.77L8.65 5.77Q8.65 5.25 8.94 4.87L8.94 4.87L8.94 4.87Q9.23 4.49 9.68 4.31L9.68 4.31L9.68 4.31Q10.14 4.12 10.61 4.12L10.61 4.12L10.61 4.12Q11.54 4.12 12.21 4.60L12.21 4.60L12.21 4.60Q12.88 5.08 12.88 6.10L12.88 6.10L12.88 9.55L12.88 9.55Q12.88 10.25 13.31 10.25L13.31 10.25L13.31 10.25Q13.66 10.25 13.82 9.84L13.82 9.84L13.82 9.84Q13.97 9.44 13.97 8.85L13.97 8.85L14.22 8.85L14.22 8.85Q14.22 9.69 13.98 10.26L13.98 10.26L13.98 10.26Q13.73 10.84 13.10 10.84L13.10 10.84L13.10 10.84Q12.50 10.84 12.20 10.48L12.20 10.48L12.20 10.48Q11.90 10.12 11.87 9.49L11.87 9.49L11.80 9.46L11.80 9.46Q11.59 9.95 11.12 10.40L11.12 10.40L11.12 10.40Q10.65 10.84 10.02 10.84L10.02 10.84ZM10.25 10.33L10.25 10.33Q10.88 10.33 11.24 9.84L11.24 9.84L11.24 9.84Q11.59 9.34 11.87 8.57L11.87 8.57L11.87 7.24L10.65 7.50L10.65 7.50Q9.98 7.64 9.68 8.06L9.68 8.06L9.68 8.06Q9.38 8.47 9.38 9.23L9.38 9.23L9.38 9.23Q9.38 9.87 9.65 10.10L9.65 10.10L9.65 10.10Q9.91 10.33 10.25 10.33L10.25 10.33ZM15.01 10.67L15.01 10.33L15.60 10.33L15.60 10.33Q15.76 10.33 15.83 10.26L15.83 10.26L15.83 10.26Q15.90 10.19 15.90 10.02L15.90 10.02L15.90 4.93L15.90 4.93Q15.90 4.76 15.83 4.69L15.83 4.69L15.83 4.69Q15.76 4.62 15.60 4.62L15.60 4.62L15.01 4.62L15.01 4.28L16.91 4.28L16.91 5.40L16.97 5.42L16.97 5.42Q17.26 4.77 17.73 4.45L17.73 4.45L17.73 4.45Q18.20 4.12 18.73 4.12L18.73 4.12L18.73 4.12Q19.56 4.12 19.96 4.56L19.96 4.56L19.96 4.56Q20.36 5.01 20.50 5.63L20.50 5.63L20.55 5.63L20.55 5.63Q20.72 5.07 21.22 4.59L21.22 4.59L21.22 4.59Q21.71 4.12 22.37 4.12L22.37 4.12L22.37 4.12Q23.39 4.12 23.82 4.80L23.82 4.80L23.82 4.80Q24.25 5.49 24.25 6.41L24.25 6.41L24.25 10.02L24.25 10.02Q24.25 10.19 24.32 10.26L24.32 10.26L24.32 10.26Q24.39 10.33 24.56 10.33L24.56 10.33L25.14 10.33L25.14 10.67L22.34 10.67L22.34 10.33L22.93 10.33L22.93 10.33Q23.10 10.33 23.17 10.26L23.17 10.26L23.17 10.26Q23.24 10.19 23.24 10.02L23.24 10.02L23.24 5.92L23.24 5.92Q23.24 5.36 22.97 4.94L22.97 4.94L22.97 4.94Q22.71 4.51 22.20 4.51L22.20 4.51L22.20 4.51Q21.78 4.51 21.41 4.84L21.41 4.84L21.41 4.84Q21.04 5.17 20.81 5.74L20.81 5.74L20.81 5.74Q20.58 6.31 20.58 7.03L20.58 7.03L20.58 10.02L20.58 10.02Q20.58 10.19 20.65 10.26L20.65 10.26L20.65 10.26Q20.72 10.33 20.89 10.33L20.89 10.33L21.48 10.33L21.48 10.67L18.68 10.67L18.68 10.33L19.26 10.33L19.26 10.33Q19.43 10.33 19.50 10.26L19.50 10.26L19.50 10.26Q19.57 10.19 19.57 10.02L19.57 10.02L19.57 5.92L19.57 5.92Q19.57 5.36 19.31 4.94L19.31 4.94L19.31 4.94Q19.04 4.51 18.54 4.51L18.54 4.51L18.54 4.51Q18.12 4.51 17.75 4.84L17.75 4.84L17.75 4.84Q17.37 5.17 17.14 5.74L17.14 5.74L17.14 5.74Q16.91 6.31 16.91 7.03L16.91 7.03L16.91 10.02L16.91 10.02Q16.91 10.19 16.98 10.26L16.98 10.26L16.98 10.26Q17.05 10.33 17.22 10.33L17.22 10.33L17.81 10.33L17.81 10.67L15.01 10.67ZM29.15 10.84L29.15 10.84Q27.85 10.84 27.05 9.95L27.05 9.95L27.05 9.95Q26.26 9.07 26.26 7.50L26.26 7.50L26.26 7.50Q26.26 6.61 26.61 5.83L26.61 5.83L26.61 5.83Q26.96 5.05 27.59 4.59L27.59 4.59L27.59 4.59Q28.21 4.12 28.98 4.12L28.98 4.12L28.98 4.12Q29.83 4.12 30.38 4.58L30.38 4.58L30.38 4.58Q30.93 5.04 31.17 5.75L31.17 5.75L31.17 5.75Q31.42 6.45 31.42 7.20L31.42 7.20L31.42 7.20Q31.42 7.35 31.32 7.40L31.32 7.40L31.32 7.40Q31.22 7.45 30.98 7.45L30.98 7.45L27.50 7.45L27.50 7.45Q27.50 8.85 27.89 9.67L27.89 9.67L27.89 9.67Q28.29 10.50 29.20 10.50L29.20 10.50L29.20 10.50Q29.85 10.50 30.41 10.01L30.41 10.01L30.41 10.01Q30.98 9.52 31.14 8.48L31.14 8.48L31.47 8.48L31.47 8.48Q31.39 9.51 30.77 10.17L30.77 10.17L30.77 10.17Q30.14 10.84 29.15 10.84L29.15 10.84ZM27.50 7.11L30.21 7.11L30.21 7.11Q30.21 5.99 29.92 5.22L29.92 5.22L29.92 5.22Q29.62 4.45 28.95 4.45L28.95 4.45L28.95 4.45Q28.24 4.45 27.87 5.23L27.87 5.23L27.87 5.23Q27.50 6.01 27.50 7.11L27.50 7.11ZM32.87 10.84L32.87 8.06L33.12 8.06L33.64 9.17L33.64 9.17Q34.40 10.50 35.60 10.50L35.60 10.50L35.60 10.50Q36.25 10.50 36.56 10.19L36.56 10.19L36.56 10.19Q36.88 9.87 36.88 9.32L36.88 9.32L36.88 9.32Q36.88 9.00 36.63 8.74L36.63 8.74L36.63 8.74Q36.39 8.48 35.98 8.33L35.98 8.33L34.38 7.69L34.38 7.69Q33.63 7.38 33.19 6.94L33.19 6.94L33.19 6.94Q32.76 6.51 32.76 5.84L32.76 5.84L32.76 5.84Q32.76 4.98 33.29 4.55L33.29 4.55L33.29 4.55Q33.82 4.12 34.64 4.12L34.64 4.12L34.64 4.12Q35.04 4.12 35.40 4.25L35.40 4.25L35.40 4.25Q35.76 4.38 35.99 4.56L35.99 4.56L35.99 4.56Q36.30 4.79 36.46 4.79L36.46 4.79L36.46 4.79Q36.64 4.79 36.68 4.54L36.68 4.54L36.71 4.26L36.96 4.26L36.96 6.38L36.71 6.38L36.51 5.89L36.51 5.89Q36.19 5.10 35.66 4.77L35.66 4.77L35.66 4.77Q35.14 4.45 34.62 4.45L34.62 4.45L34.62 4.45Q34.10 4.45 33.77 4.71L33.77 4.71L33.77 4.71Q33.43 4.97 33.43 5.43L33.43 5.43L33.43 5.43Q33.43 5.84 33.76 6.10L33.76 6.10L33.76 6.10Q34.09 6.36 34.66 6.59L34.66 6.59L36.18 7.22L36.18 7.22Q36.85 7.50 37.18 7.90L37.18 7.90L37.18 7.90Q37.52 8.30 37.52 9.02L37.52 9.02L37.52 9.02Q37.52 9.95 36.99 10.40L36.99 10.40L36.99 10.40Q36.46 10.84 35.59 10.84L35.59 10.84L35.59 10.84Q35.07 10.84 34.75 10.70L34.75 10.70L34.75 10.70Q34.43 10.56 34.12 10.32L34.12 10.32L34.12 10.32Q33.99 10.22 33.87 10.15L33.87 10.15L33.87 10.15Q33.74 10.08 33.64 10.08L33.64 10.08L33.64 10.08Q33.31 10.08 33.18 10.56L33.18 10.56L33.12 10.84L32.87 10.84ZM42.90 10.67L42.90 10.22L43.90 10.22L43.90 10.22Q44.28 10.22 44.28 9.84L44.28 9.84L44.28 1.53L44.28 1.53Q44.28 1.15 43.90 1.15L43.90 1.15L42.90 1.15L42.90 0.70L46.96 0.70L46.96 1.15L45.95 1.15L45.95 1.15Q45.57 1.15 45.57 1.53L45.57 1.53L45.57 5.21L49.80 5.21L49.80 1.53L49.80 1.53Q49.80 1.15 49.42 1.15L49.42 1.15L48.41 1.15L48.41 0.70L52.47 0.70L52.47 1.15L51.46 1.15L51.46 1.15Q51.09 1.15 51.09 1.53L51.09 1.53L51.09 9.84L51.09 9.84Q51.09 10.22 51.46 10.22L51.46 10.22L52.47 10.22L52.47 10.67L48.41 10.67L48.41 10.22L49.42 10.22L49.42 10.22Q49.80 10.22 49.80 9.84L49.80 9.84L49.80 5.66L45.57 5.66L45.57 9.84L45.57 9.84Q45.57 10.22 45.95 10.22L45.95 10.22L46.96 10.22L46.96 10.67L42.90 10.67ZM57.85 10.67L57.85 10.22L58.86 10.22L58.86 10.22Q59.23 10.22 59.23 9.84L59.23 9.84L59.23 1.53L59.23 1.53Q59.23 1.33 59.14 1.24L59.14 1.24L59.14 1.24Q59.05 1.15 58.86 1.15L58.86 1.15L57.85 1.15L57.85 0.70L62.13 0.70L62.13 1.15L60.90 1.15L60.90 1.15Q60.70 1.15 60.61 1.24L60.61 1.24L60.61 1.24Q60.52 1.33 60.52 1.53L60.52 1.53L60.52 9.84L60.52 9.84Q60.52 10.22 60.90 10.22L60.90 10.22L62.31 10.22L62.31 10.22Q63.06 10.22 63.64 9.88L63.64 9.88L63.64 9.88Q64.23 9.55 64.53 8.90L64.53 8.90L64.53 8.90Q64.75 8.43 64.90 7.89L64.90 7.89L64.90 7.89Q65.04 7.35 65.11 6.97L65.11 6.97L65.11 6.97Q65.18 6.59 65.20 6.50L65.20 6.50L65.55 6.50L65.42 10.67L57.85 10.67ZM69.83 10.84L69.83 10.84Q69.06 10.84 68.42 10.38L68.42 10.38L68.42 10.38Q67.77 9.93 67.40 9.16L67.40 9.16L67.40 9.16Q67.03 8.39 67.03 7.48L67.03 7.48L67.03 7.48Q67.03 6.57 67.40 5.80L67.40 5.80L67.40 5.80Q67.77 5.03 68.42 4.57L68.42 4.57L68.42 4.57Q69.06 4.12 69.83 4.12L69.83 4.12L69.83 4.12Q70.60 4.12 71.25 4.57L71.25 4.57L71.25 4.57Q71.89 5.03 72.26 5.80L72.26 5.80L72.26 5.80Q72.63 6.57 72.63 7.48L72.63 7.48L72.63 7.48Q72.63 8.39 72.26 9.16L72.26 9.16L72.26 9.16Q71.89 9.93 71.25 10.38L71.25 10.38L71.25 10.38Q70.60 10.84 69.83 10.84L69.83 10.84ZM69.83 10.50L69.83 10.50Q70.67 10.50 71.04 9.71L71.04 9.71L71.04 9.71Q71.40 8.92 71.40 7.48L71.40 7.48L71.40 7.48Q71.40 6.03 71.04 5.24L71.04 5.24L71.04 5.24Q70.67 4.45 69.83 4.45L69.83 4.45L69.83 4.45Q68.99 4.45 68.63 5.24L68.63 5.24L68.63 5.24Q68.26 6.03 68.26 7.48L68.26 7.48L68.26 7.48Q68.26 8.92 68.63 9.71L68.63 9.71L68.63 9.71Q68.99 10.50 69.83 10.50L69.83 10.50Z"></path></g><!----><g data-v-423bf9ae="" id="eaecac42-1a03-41a6-b123-5f1d7f75427a" transform="matrix(1.1538461538461537,0,0,1.1538461538461537,0.15283793669480872,-28.84615384615384)" stroke="none" fill="#D1A103"><path d="M74.313 25l-28.094 78h8.469l28.094-78h-8.469zM38 36.25l-2.188 1.406-34 22-1.813 1.156v4.25l1.688 1.219 34 24L38 91.875v-9.781L11.156 63.125 38 45.75v-9.5zm52 0v9.5l26.844 17.375L90 82.094v9.781l2.313-1.594 34-24 1.688-1.219v-4.25l-1.813-1.156-34-22L90 36.25z"></path></g><!----></svg>