<?xml version="1.0" encoding="UTF-8" standalone="no"?>
<!DOCTYPE svg PUBLIC "-//W3C//DTD SVG 1.1//EN" "http://www.w3.org/Graphics/SVG/1.1/DTD/svg11.dtd">
<svg width="100%" height="100%" viewBox="0 0 1054 1297" version="1.1" xmlns="http://www.w3.org/2000/svg" xmlns:xlink="http://www.w3.org/1999/xlink" xml:space="preserve" xmlns:serif="http://www.serif.com/" style="fill-rule:evenodd;clip-rule:evenodd;stroke-linejoin:round;stroke-miterlimit:2;">
    <g id="Layer_3" transform="matrix(1,0,0,1,-969,-633)">
        <rect x="-82.17" y="-82.17" width="3164.34" height="3164.34" style="fill:white;fill-opacity:0;"/>
        <g>
            <g>
                <path d="M1066.72,1701.69C1066.72,1701.69 1044.1,1713.26 1036.21,1713.26C1028.32,1713.26 1059.88,1746.92 1051.46,1792.69C1043.04,1838.45 1053.04,1903.15 1083.55,1898.94C1114.06,1894.73 1096.17,1821.09 1121.42,1783.22C1146.67,1745.35 1142.46,1716.94 1142.46,1716.94C1142.46,1716.94 1073.56,1739.96 1066.72,1701.69Z" style="fill:white;fill-rule:nonzero;"/>
                <path d="M1135.05,1709.58C1135.05,1709.58 1099.42,1721.55 1078.03,1706.75L1078.03,1699.32L1066.19,1696.56L1075.66,1686.7L1061.85,1684.33C1061.85,1684.33 1075.66,1676.83 1078.42,1668.94C1078.42,1668.94 1062.25,1663.81 1058.04,1658.29C1058.04,1658.29 1070.66,1655.4 1071.98,1646.98C1071.98,1646.98 1054.36,1641.46 1051.47,1638.04C1051.47,1638.04 1065.41,1634.62 1069.62,1632.25C1069.62,1632.25 1050.68,1622.52 1047.53,1617.26L1060.94,1611.74C1060.94,1611.74 1044.9,1595.17 1040.69,1585.7L1059.36,1587.54L1032.27,1555.98L1065.15,1567.03C1065.15,1567.03 1036.22,1541.26 1032.27,1528.37C1032.27,1528.37 1036.74,1521.79 1045.95,1523.37L1037.27,1511.27L1052.52,1513.37L1045.68,1495.22L1129.69,1601.82C1129.69,1601.82 1122.56,1615.84 1117.29,1630.27C1109.52,1651.62 1108.54,1682.92 1135.05,1709.58Z" style="fill:white;fill-rule:nonzero;"/>
                <g>
                    <path d="M1489.67,1370.67C1492.09,1384.2 1494.13,1397.32 1495.29,1408.32C1513.7,1392.58 1522.78,1383.46 1522.78,1383.46L1489.67,1370.67Z" style="fill:white;fill-rule:nonzero;"/>
                    <path d="M1405.34,1444.82C1405.21,1436.75 1405.05,1426.7 1404.22,1424.5C1400.85,1416.26 1395.89,1407.32 1395.84,1407.23C1394.98,1405.69 1394.9,1403.83 1395.61,1402.21C1395.86,1401.65 1396.21,1401.17 1396.62,1400.73C1380.17,1403.55 1364.9,1404.1 1354.46,1401.86C1325,1395.55 1320.79,1410.8 1320.79,1410.8C1320.79,1410.8 1319.21,1418.16 1308.69,1437.1C1275.79,1496.32 1191.39,1517.58 1167.72,1536.52C1144.05,1555.46 1148.78,1580.71 1148.78,1580.71L1139.31,1598.07C1097.23,1685.39 1139.31,1688.02 1139.31,1688.02C1139.31,1688.02 1184.49,1631.42 1224.52,1604.42C1274.49,1570.72 1266.6,1557.57 1287.64,1551.26C1323.61,1540.47 1349.18,1514.96 1358.13,1509.18C1375.86,1497.71 1392.11,1486.7 1406.92,1476.3C1405.85,1467.61 1405.53,1456.94 1405.34,1444.82Z" style="fill:white;fill-rule:nonzero;"/>
                </g>
                <path d="M1584.32,1203.03C1532.24,1175.68 1505.94,1166.21 1482.8,1166.21C1459.66,1166.21 1411.26,1200.93 1418.63,1217.23C1418.63,1217.23 1408.11,1214.07 1389.7,1224.07C1371.29,1234.06 1347.09,1235.12 1351.83,1250.37C1355.83,1263.27 1368.83,1272.76 1372.76,1275.39C1374.16,1274.87 1375.58,1274.38 1376.98,1273.85C1384.45,1270.96 1391.85,1267.92 1398.94,1264.35C1406.04,1260.82 1412.89,1256.77 1418.84,1251.68C1424.72,1246.63 1429.64,1240.04 1430.35,1231.83C1430.92,1235.86 1430.1,1240.12 1428.39,1243.94C1426.66,1247.78 1424.05,1251.14 1421.13,1254.11C1415.26,1260.06 1408.15,1264.47 1400.86,1268.19C1393.5,1271.81 1385.86,1274.74 1378.05,1277.03C1376.36,1277.52 1374.66,1277.98 1372.96,1278.42C1370.37,1285.16 1364.41,1306.14 1378.67,1330.33C1378.67,1330.33 1361.78,1339.9 1352.25,1358.98C1353.41,1358.05 1354.58,1357.12 1355.76,1356.21C1361.56,1351.72 1367.65,1347.61 1373.88,1343.72C1380.13,1339.88 1386.58,1336.33 1393.23,1333.21C1399.85,1330.03 1406.74,1327.4 1413.79,1325.34C1407.44,1329.05 1401.05,1332.48 1394.79,1336.18C1388.54,1339.86 1382.28,1343.51 1376.14,1347.38C1367.41,1352.71 1358.78,1358.24 1350.12,1363.77C1349.22,1366.04 1348.39,1368.38 1347.75,1370.88C1345,1381.58 1323.97,1379.25 1313.98,1404.5C1322.92,1392.93 1336.6,1384.51 1370.26,1389.77C1381.83,1391.58 1393.64,1389.91 1405.24,1386.1L1402.84,1377.31C1402.22,1375.02 1403.1,1372.58 1405.04,1371.22C1406.01,1370.54 1407.13,1370.21 1408.26,1370.21C1409.4,1370.21 1410.54,1370.56 1411.52,1371.25L1422.39,1378.97C1422.7,1378.81 1423.02,1378.66 1423.33,1378.5C1420.52,1367.33 1417.31,1353.32 1416.86,1345.8C1416.7,1343.16 1418.4,1340.77 1420.94,1340.05C1421.45,1339.91 1421.97,1339.84 1422.47,1339.84C1424.5,1339.84 1426.43,1340.95 1427.43,1342.81C1428.75,1345.26 1430.15,1347.81 1431.58,1350.32C1430.01,1339.71 1428.73,1327.97 1429.08,1319.39C1429.19,1316.79 1431.06,1314.61 1433.61,1314.1C1433.97,1314.03 1434.34,1313.99 1434.7,1313.99C1436.86,1313.99 1438.88,1315.24 1439.81,1317.27C1439.86,1317.37 1441.38,1320.68 1443.67,1325.45C1442.11,1316.31 1441.06,1307.9 1441.46,1303.52C1441.69,1301.04 1443.52,1299 1445.97,1298.52C1446.34,1298.45 1446.7,1298.41 1447.07,1298.41C1449.13,1298.41 1451.06,1299.54 1452.05,1301.42L1460.91,1318.3L1460.91,1287.86C1460.91,1285.56 1462.31,1283.58 1464.33,1282.71C1456.02,1282.42 1447.71,1283.02 1439.55,1284.73C1431.96,1286.28 1424.55,1288.79 1417.35,1291.83C1410.08,1294.75 1403.08,1298.35 1396.05,1301.93C1402.59,1297.52 1409.42,1293.54 1416.48,1289.93C1423.6,1286.44 1431.05,1283.53 1438.81,1281.53C1454.35,1277.44 1470.87,1277.93 1486.46,1281.11C1488.43,1281.44 1490.35,1281.98 1492.29,1282.43C1494.22,1282.9 1496.22,1283.39 1497.93,1283.74C1501.51,1284.44 1505.22,1284.22 1508.87,1283.5C1516.22,1282.05 1523.12,1278.33 1529.84,1274.43C1536.56,1270.47 1543.05,1265.97 1549.9,1261.96C1553.36,1260.01 1556.91,1258.18 1560.63,1256.76C1564.33,1255.3 1568.33,1254.43 1572.27,1254.6C1564.33,1255.26 1557.45,1259.44 1551,1263.75C1544.47,1268.06 1538.22,1272.85 1531.59,1277.23C1524.99,1281.61 1517.82,1285.59 1509.71,1287.48C1505.67,1288.38 1501.37,1288.64 1497.19,1287.87C1495.04,1287.45 1493.21,1287 1491.31,1286.56C1489.41,1286.14 1487.53,1285.63 1485.61,1285.32C1480.22,1284.19 1474.77,1283.4 1469.31,1282.98C1470.62,1283.73 1471.63,1284.99 1472,1286.55C1472.55,1288.87 1480.29,1321.36 1486.9,1355.6L1515.97,1362.94C1515.97,1362.94 1527.02,1299.82 1578.57,1272.47C1630.12,1245.12 1661.15,1272.47 1661.15,1272.47C1661.15,1272.47 1636.4,1230.39 1584.32,1203.03ZM1464.93,1257.55C1460.88,1255.91 1457.01,1253.41 1453.99,1249.97C1451,1246.5 1449.07,1242.21 1448.19,1237.92C1447.29,1233.62 1447.16,1229.41 1447.03,1225.12C1448.9,1229.02 1449.98,1233.18 1451.4,1236.99C1452.86,1240.78 1454.65,1244.27 1457.23,1247.15C1459.73,1250.1 1462.96,1252.43 1466.42,1254.55C1469.88,1256.71 1473.72,1258.33 1477.53,1260.36C1473.27,1260.06 1468.97,1259.3 1464.93,1257.55ZM1545.75,1242.42C1535.3,1243.61 1523.94,1243.15 1513.99,1237.77C1504.3,1232.1 1497.73,1223.04 1492.69,1213.76C1487.61,1204.41 1484.04,1194.36 1481.75,1184.1C1485.62,1193.86 1490.17,1203.29 1495.58,1212.08C1501.02,1220.75 1507.51,1229.14 1516.1,1234.03C1520.29,1236.45 1525.26,1237.78 1530.22,1238.53C1535.2,1239.34 1540.33,1239.26 1545.52,1239.07C1550.71,1238.85 1555.99,1238.51 1561.29,1238.64C1566.58,1238.85 1571.9,1239.41 1576.96,1240.9C1566.45,1239.59 1556.23,1241.31 1545.75,1242.42Z" style="fill:white;fill-rule:nonzero;"/>
                <g>
                    <path d="M1834.18,987.37C1808.55,977.19 1790.46,969.11 1780.3,960.96C1775.42,964.09 1770.53,967.2 1765.62,970.28C1759.81,973.94 1754,977.62 1748.13,981.18L1747.94,981.3L1747.69,981.34C1734.89,983.38 1722.11,985.52 1709.3,987.48C1692.7,993.05 1676.06,998.47 1659.41,1003.87L1658.7,1004.1L1658,1003.84C1640.26,997.24 1622.54,990.58 1604.87,983.77L1604.29,983.55L1603.99,983.07L1592.1,963.72C1588.15,957.26 1584.13,950.85 1580.28,944.33L1580.13,944.08L1580.14,943.85C1580.32,938.02 1580.49,932.19 1580.68,926.36L1531.71,926.36C1524.35,926.36 1470.17,962.13 1466.48,994.22C1466.48,994.22 1470.16,985.28 1481.73,984.75C1481.73,984.75 1513.47,1036.01 1515.47,1074.92C1520,1067.51 1525.46,1060.75 1531.2,1054.3C1537.2,1047.74 1543.7,1041.68 1550.53,1036.05C1557.36,1030.41 1564.56,1025.23 1572.2,1020.78C1565.53,1026.57 1559.11,1032.56 1552.74,1038.55C1546.44,1044.62 1540.18,1050.71 1534.37,1057.2C1532.84,1058.76 1531.48,1060.45 1530.03,1062.07C1528.57,1063.69 1527.18,1065.35 1525.84,1067.06C1524.48,1068.75 1523.04,1070.4 1521.75,1072.14C1520.49,1073.9 1519.19,1075.64 1517.88,1077.38C1517.08,1078.54 1516.31,1079.72 1515.54,1080.89C1515.51,1081.81 1515.48,1082.74 1515.41,1083.64C1515.15,1086.93 1514.7,1090.12 1514.12,1093.23C1514.13,1093.22 1514.13,1093.21 1514.14,1093.21C1516.46,1089.48 1519.22,1086.08 1521.85,1082.57C1523.18,1080.83 1524.68,1079.23 1526.09,1077.55C1527.51,1075.88 1528.95,1074.22 1530.48,1072.65C1536.48,1066.26 1542.99,1060.34 1549.95,1055.04C1556.88,1049.71 1564.3,1044.95 1572.22,1041.29C1565.15,1046.37 1558.54,1051.93 1552.07,1057.61C1545.65,1063.35 1539.41,1069.26 1533.6,1075.58C1527.71,1081.82 1522.1,1088.33 1516.86,1095.16C1515.31,1097.11 1513.82,1099.1 1512.34,1101.11C1509,1113.46 1503.63,1124.05 1498.49,1132.23C1504.84,1128.95 1511.17,1125.63 1517.47,1122.28C1529.27,1115.96 1540.96,1109.48 1552.48,1102.71C1564.07,1096.05 1575.44,1089.02 1586.7,1081.81L1595.13,1076.37L1603.46,1070.77C1609.15,1067.2 1614.43,1063.09 1620.08,1059.42C1610.04,1068.32 1599.64,1076.92 1588.58,1084.58C1585.87,1086.58 1583.11,1088.49 1580.29,1090.33L1571.88,1095.91C1566.17,1099.47 1560.47,1103.05 1554.65,1106.41C1543,1113.14 1531.14,1119.51 1518.98,1125.25C1511.64,1128.76 1504.19,1132.03 1496.65,1135.06C1490.1,1144.89 1484.38,1150.55 1484.38,1150.55C1484.38,1150.55 1487.54,1151.29 1492.91,1152.79C1496.4,1152.11 1499.89,1151.42 1503.37,1150.7C1515.56,1148.13 1527.67,1145.2 1539.63,1141.78C1551.63,1138.5 1563.46,1134.63 1575.15,1130.36L1583.91,1127.11L1592.57,1123.59C1598.45,1121.45 1603.98,1118.55 1609.82,1116.22C1599.11,1122.69 1588.03,1128.76 1576.37,1133.47L1572.04,1135.34L1567.63,1137.01L1558.79,1140.3C1552.81,1142.23 1546.85,1144.26 1540.78,1145.9C1528.67,1149.27 1516.39,1152.06 1503.96,1153.97C1502.41,1154.22 1500.86,1154.41 1499.31,1154.64C1508.57,1157.42 1521.39,1161.64 1535.76,1167.48C1544.31,1164.22 1552.68,1160.58 1561,1156.87C1571.36,1152.15 1581.59,1147.17 1591.68,1141.9C1596.69,1139.2 1601.76,1136.62 1606.68,1133.75L1614.14,1129.59L1621.52,1125.27C1631.36,1119.52 1641.05,1113.49 1650.85,1107.52C1646.45,1111.19 1641.94,1114.73 1637.39,1118.23C1632.72,1121.56 1628.15,1125.04 1623.3,1128.11C1613.79,1134.56 1603.79,1140.23 1593.68,1145.69C1583.46,1150.94 1573.03,1155.81 1562.3,1159.94C1554.11,1163.11 1545.76,1165.93 1537.24,1168.07C1546.09,1171.71 1555.48,1175.96 1564.93,1180.84C1569.97,1178.31 1575,1175.75 1579.94,1173.05C1587.05,1169.36 1594.09,1165.53 1601.07,1161.6C1615.01,1153.71 1628.8,1145.61 1642.28,1137.01C1655.84,1128.53 1668.88,1119.28 1681.78,1109.84L1691.3,1102.54C1694.51,1100.14 1697.45,1097.44 1700.56,1094.91C1706.93,1090.02 1712.57,1084.34 1718.71,1079.12C1716.01,1082.09 1713.28,1085.04 1710.51,1087.96C1707.81,1090.95 1704.88,1093.71 1701.96,1096.48C1698.99,1099.19 1696.13,1102.05 1693.04,1104.62L1683.82,1112.44C1671.3,1122.57 1658.19,1132.01 1644.58,1140.63C1630.94,1149.2 1616.99,1157.27 1602.61,1164.5C1595.41,1168.09 1588.18,1171.61 1580.85,1174.93C1575.86,1177.11 1570.85,1179.27 1565.79,1181.28C1581.73,1189.57 1597.79,1199.67 1611.73,1211.72C1621.18,1207.68 1630.45,1203.73 1639.51,1199.29C1644.38,1197 1649.15,1194.51 1653.91,1191.96C1658.71,1189.46 1663.32,1186.66 1668.2,1184.05C1664.42,1188.06 1660.23,1191.72 1655.66,1194.81C1653.45,1196.48 1651.02,1197.8 1648.69,1199.29C1646.27,1200.61 1643.85,1201.96 1641.37,1203.15C1636.38,1205.52 1631.27,1207.61 1625.98,1209.2C1621.52,1210.57 1616.96,1211.66 1612.32,1212.24C1620.38,1219.27 1627.73,1226.95 1633.87,1235.34C1633.87,1235.34 1710.41,1177.74 1738.42,1145.39C1766.43,1113.04 1788.13,1094.5 1788.13,1094.5C1788.13,1094.5 1822.85,1053.87 1827.58,1038.08C1832.31,1022.3 1827.58,993.11 1827.58,993.11C1827.58,993.11 1849.67,1001 1860.72,1023.88C1860.74,1023.92 1872.58,1002.62 1834.18,987.37ZM1532.68,978.32C1528.78,985.01 1525.36,991.96 1522.15,999.01C1518.84,1006.04 1516.32,1013.37 1513.57,1020.77C1514.58,1012.98 1516.25,1005.17 1519.04,997.76C1519.64,995.87 1520.37,994.03 1521.16,992.21C1521.94,990.39 1522.65,988.54 1523.5,986.75C1525.23,983.19 1526.98,979.63 1528.95,976.2C1532.89,969.34 1537.26,962.72 1542.2,956.56C1547.13,950.4 1552.49,944.55 1558.55,939.5C1549.04,952.01 1540.28,964.82 1532.68,978.32ZM1575.53,975.29C1570.79,977.84 1566.18,980.6 1561.72,983.57C1557.2,986.46 1552.88,989.66 1548.61,992.95C1544.35,996.27 1540.19,999.73 1536.06,1003.4C1538.82,998.58 1542.45,994.32 1546.4,990.44C1550.34,986.53 1554.71,983.05 1559.35,979.99C1561.66,978.44 1564.1,977.09 1566.52,975.73C1569.03,974.53 1571.47,973.19 1574.1,972.26C1579.22,970.11 1584.64,968.71 1590.1,967.9C1585.16,970.43 1580.24,972.64 1575.53,975.29ZM1689.22,1055.91C1683.15,1060.59 1676.73,1064.76 1670.37,1069.04C1657.44,1077.27 1644.03,1084.73 1630.26,1091.44C1616.45,1098.06 1602.41,1104.2 1588.06,1109.5C1580.88,1112.14 1573.67,1114.69 1566.4,1117.06C1559.1,1119.32 1551.78,1121.56 1544.35,1123.35C1551.5,1120.64 1558.65,1118.02 1565.69,1115.09C1572.79,1112.33 1579.84,1109.44 1586.84,1106.45C1600.83,1100.44 1614.72,1094.25 1628.38,1087.59C1642.09,1081.02 1655.42,1073.73 1668.64,1066.23C1675.16,1062.33 1681.73,1058.5 1688.01,1054.2C1694.56,1050.28 1700.52,1045.56 1706.89,1041.29C1701.14,1046.3 1695.39,1051.38 1689.22,1055.91Z" style="fill:white;fill-rule:nonzero;"/>
                    <path d="M1581.91,943.56C1586.16,949.73 1590.25,956.01 1594.41,962.24L1606.64,980.64C1624.07,986.84 1641.44,993.17 1658.8,999.57C1675.27,994.28 1691.76,989.01 1708.28,983.88L1708.45,983.83L1708.59,983.81C1721.42,982.11 1734.28,980.58 1747.13,978.96C1753.02,975.6 1758.97,972.35 1764.92,969.08C1769.97,966.3 1775.03,963.54 1780.11,960.81C1775.16,956.8 1772.09,952.76 1771.06,948.44L1738.45,961.59L1703.73,961.06L1670.07,980.52C1670.07,980.52 1619.57,975.26 1607.47,956.32C1595.37,937.38 1606.94,918.45 1606.94,918.45L1602.73,910.03C1602.73,910.03 1587.48,914.76 1583.79,926.34L1581.38,926.34C1581.57,932.09 1581.73,937.82 1581.91,943.56Z" style="fill:white;fill-rule:nonzero;"/>
                </g>
                <path d="M1529.35,1370.7C1529.35,1370.7 1535.47,1261.8 1652.31,1274.36C1684.13,1277.78 1758.96,1360.31 1777.9,1373.46C1796.84,1386.61 1792.64,1459.55 1720.04,1458.67C1676.38,1458.14 1676.38,1479.71 1633.77,1484.44C1573.94,1491.09 1521.2,1497.06 1502.79,1511.79L1487.54,1454.45C1487.54,1454.45 1513.84,1449.19 1525.41,1436.57C1536.98,1423.95 1562.23,1399.2 1597.47,1396.32L1529.35,1370.7Z" style="fill:white;fill-rule:nonzero;"/>
                <path d="M1481.81,1460.88L1492.79,1529.16C1492.79,1529.16 1415.99,1549.67 1416.52,1584.92C1417.05,1620.16 1390.75,1638.57 1378.12,1638.57C1365.5,1638.57 1353.92,1575.97 1366.02,1546.25C1378.12,1516.53 1379.17,1508.11 1379.17,1508.11L1405.47,1487.86C1405.47,1487.86 1406,1501.54 1417.04,1504.43C1428.1,1507.33 1465.37,1491.42 1481.81,1460.88Z" style="fill:white;fill-rule:nonzero;"/>
                <path d="M1466.49,1287.85C1466.49,1287.85 1489.9,1385.69 1490.69,1422.77C1491.48,1459.85 1431.91,1500.09 1419.68,1494.18C1407.45,1488.26 1412.97,1431.06 1409.42,1422.38C1405.87,1413.7 1400.74,1404.5 1400.74,1404.5C1400.74,1404.5 1412.18,1401.87 1416.52,1406.21L1408.24,1375.83L1433.09,1393.48C1433.09,1393.48 1423.23,1358.47 1422.44,1345.45C1422.44,1345.45 1437.04,1372.67 1441.77,1375.43C1441.77,1375.43 1433.88,1338.73 1434.67,1319.6C1434.67,1319.6 1448.87,1350.57 1456.76,1361.23C1456.76,1361.23 1445.98,1315.47 1447.03,1304.03L1466.49,1341.11L1466.49,1287.85Z" style="fill:white;fill-rule:nonzero;"/>
                <path d="M1612.73,920.04C1612.73,920.04 1596.95,945.81 1621.15,959.23C1645.35,972.64 1670.6,972.64 1670.6,972.64L1700.06,955.28L1737.93,956.6L1750.03,949.76L1732.41,938.19C1732.41,938.19 1735.3,923.2 1750.03,922.15C1764.76,921.1 1790.01,913.73 1790.8,908.47C1791.59,903.21 1787.12,888.22 1793.43,885.85C1799.74,883.48 1793.43,878.75 1793.43,878.75C1793.43,878.75 1800.79,876.38 1799.22,871.65C1797.65,866.92 1799.44,860.87 1799.44,860.87C1799.44,860.87 1810,861.4 1813.68,860.87C1817.36,860.34 1806.58,841.67 1805.79,830.62C1805,819.57 1807.19,812.47 1814.44,806.55C1821.69,800.63 1808.68,784.85 1794.87,780.91C1781.06,776.97 1661.57,820.56 1626.41,884.67C1622.91,891.04 1629.57,901.24 1629.57,901.24C1629.57,901.24 1634.94,923.24 1612.73,920.04Z" style="fill:white;fill-rule:nonzero;"/>
                <path d="M1612.73,889C1617.99,872.69 1677.73,794.12 1780,776.43C1816.51,770.12 1819.98,794.84 1819.98,794.84C1819.98,794.84 1822.08,775.9 1801.57,765.38C1781.06,754.86 1768.43,739.61 1697.42,741.71C1697.42,741.71 1725.82,756.96 1721.62,771.17C1717.42,785.38 1685.85,811.15 1612.73,823.25C1612.73,823.25 1604.31,863.23 1612.73,889Z" style="fill:white;fill-rule:nonzero;"/>
                <path d="M1709.51,773.8C1696.36,784.32 1670.32,800.89 1634.03,807.46L1634.03,796.94C1634.03,796.94 1624.56,805.36 1613.25,808.78C1613.25,808.78 1615.35,802.2 1617.2,794.05C1617.2,794.05 1598.79,801.68 1585.9,801.15L1596.42,786.95C1596.42,786.95 1579.06,789.32 1566.17,786.95L1585.11,773.8C1585.11,773.8 1559.6,771.96 1546.71,767.22C1546.71,767.22 1569.33,762.75 1575.11,757.23C1575.11,757.23 1548.28,756.44 1535.13,747.76L1546.97,741.51C1546.97,741.51 1531.19,737.76 1520.14,729.61C1520.14,729.61 1537.24,729.35 1547.23,725.93C1547.23,725.93 1517.77,718.83 1503.57,702.52C1503.57,702.52 1545.13,714.62 1578.26,711.46C1578.26,711.46 1507.25,700.15 1482.26,671.48C1482.26,671.48 1510.4,682.79 1528.81,682C1528.81,682 1499.35,673.85 1487.25,653.07C1487.25,653.07 1555.37,680.42 1602.71,678.58C1602.71,678.58 1585.61,671.74 1580.35,660.43C1580.35,660.43 1602.18,673.32 1621.64,673.32L1668.98,673.32C1678.18,673.32 1694.23,679.5 1685.55,701.99C1676.87,724.48 1684.68,746.97 1703.3,758.8C1714.51,765.91 1709.51,773.8 1709.51,773.8Z" style="fill:white;fill-rule:nonzero;"/>
                <path d="M1691.5,702.4C1690.71,705.16 1685.19,720.94 1691.5,735.54C1691.5,735.54 1730.16,731.59 1753.83,739.09C1753.83,739.09 1753.04,733.44 1761.72,730.94C1770.4,728.44 1754.22,694.9 1691.5,702.4Z" style="fill:white;fill-rule:nonzero;"/>
                <path d="M1834.7,1008.14C1836.67,1021.16 1843.38,1044.43 1798.8,1091.38C1798.8,1091.38 1817.34,1090.59 1832.33,1107.56C1847.32,1124.52 1887.96,1140.7 1970.8,1140.7C2026.66,1140.7 1985.4,1045.62 1985.4,1019.98C1985.4,994.34 1994.44,974.83 1969.09,962.38C1960.75,958.29 1962.05,951.53 1943.97,951.53C1935.03,951.53 1926.22,937.92 1903.73,937.92C1881.24,937.92 1883.02,946.99 1883.02,946.99C1883.02,946.99 1902.35,943.44 1907.87,954.09C1913.39,964.74 1912.6,984.27 1912.6,984.27C1912.6,984.27 1898.99,985.65 1894.26,979.54C1889.53,973.43 1865.55,971.85 1862.45,977.17C1859.35,982.5 1876.75,992.55 1890.12,995.32C1901.56,997.69 1901.96,1013.86 1929.18,1023.53C1929.18,1023.53 1935.49,1047.4 1916.36,1065.55C1916.36,1065.55 1900.47,1039.12 1862.46,1036.36C1862.46,1036.35 1853.05,1015.84 1834.7,1008.14Z" style="fill:white;fill-rule:nonzero;"/>
                <path d="M1460.71,1020.77C1460.71,1020.77 1462.29,1005.78 1478.07,991.97C1478.07,991.97 1519.1,1056.28 1508.45,1098.09C1508.45,1098.09 1481.36,1110.32 1466.5,1121.76C1451.64,1133.2 1435.09,1143.06 1430.35,1146.61C1425.61,1150.16 1398.04,1186.82 1335.66,1198.33C1297.39,1205.39 1276.48,1235.37 1276.48,1235.37C1276.48,1235.37 1263.07,1246.81 1241.76,1246.81C1233.48,1246.81 1210.99,1207.36 1210.99,1191.18C1210.99,1175 1213.75,1163.56 1229.53,1157.25C1245.31,1150.94 1259.51,1148.57 1259.51,1163.96C1259.51,1163.96 1269.77,1169.48 1290.28,1159.23C1310.79,1148.97 1324.21,1124.51 1338.41,1116.23C1352.61,1107.95 1379.83,1090.19 1408.24,1092.56C1408.24,1092.56 1425.61,1052.87 1461.5,1041.27C1461.5,1041.28 1457.61,1030.75 1460.71,1020.77Z" style="fill:white;fill-rule:nonzero;"/>
                <path d="M1068.83,815.26L1262.4,1254.58C1262.4,1254.58 1265.69,1271.02 1262.4,1278.25C1259.11,1285.48 1260.3,1308.1 1283.57,1301.92C1306.84,1295.74 1310.4,1278.78 1298.96,1271.67C1287.52,1264.56 1276.47,1246.82 1276.47,1246.82L1080.79,810.1C1080.79,810.1 1095.65,796.16 1075.92,800.11C1056.2,804.05 1056.86,820.42 1068.83,815.26Z" style="fill:white;fill-rule:nonzero;"/>
                <path d="M1063.04,801.16C1063.04,801.16 1069.09,796.69 1074.35,796.43L1066.2,784.59L1060.37,787.48L1063.04,801.16Z" style="fill:white;fill-rule:nonzero;"/>
                <circle cx="1059.3" cy="777.54" r="6.3" style="fill:white;"/>
                <path d="M1067.36,823.91L1087.18,869.5L1069.74,885.85L1062.24,885.85L1062.24,904.79L1049.62,902.42C1049.62,902.42 1044.1,921.36 1055.14,932.01C1055.14,932.01 1046.86,935.56 1038.18,923.73C1038.18,923.73 1035.02,945.43 1047.65,959.63C1047.65,959.63 1031.87,958.05 1024.77,928.46C1024.77,928.46 1020.82,953.71 1026.74,965.94C1026.74,965.94 994.78,932.01 1009.38,865.73L999.91,866.52C999.91,866.52 1006.62,832.59 1014.51,819.57C1022.4,806.55 1033.84,804.58 1047.25,816.02C1060.67,827.46 1067.36,823.91 1067.36,823.91Z" style="fill:white;fill-rule:nonzero;"/>
                <path d="M1087.18,813.69L1107.22,859.19L1131.06,857.47L1136.15,851.96L1150.06,864.81L1156.89,853.93C1156.89,853.93 1174.55,862.72 1174.88,878.06C1174.88,878.06 1183.11,874.38 1180.3,859.98C1180.3,859.98 1198.38,872.38 1200.25,891.29C1200.25,891.29 1209.8,878.63 1192.88,853.34C1192.88,853.34 1214.11,867.57 1219.08,880.22C1219.08,880.22 1215.84,833.73 1157.24,799.48L1164.24,793.06C1164.24,793.06 1134.76,774.97 1119.85,771.93C1104.94,768.89 1095.72,775.96 1095.03,793.58C1094.34,811.2 1087.18,813.69 1087.18,813.69Z" style="fill:white;fill-rule:nonzero;"/>
                <path d="M1082.76,902.68C1080.34,905.31 1078.3,908.27 1077.21,911.5C1076.04,914.68 1075.96,918.09 1077.08,920.94C1078.26,923.78 1080.43,926.09 1083.11,927.84C1085.77,929.61 1088.86,930.88 1092.06,931.84C1098.46,933.8 1105.3,934.78 1112.2,935.2C1119.14,935.64 1125.96,935.71 1133.14,935.57C1140.61,935.48 1148.31,936.02 1156.07,938.5C1163.73,940.7 1171.91,946.09 1176.2,954.35C1178.36,958.39 1179.43,962.8 1179.81,967.01C1180.2,971.23 1179.98,975.32 1179.46,979.25C1178.34,987.11 1176.02,994.35 1173.41,1001.31C1170.75,1008.24 1167.65,1014.88 1164.72,1021.29C1161.76,1027.64 1159.09,1033.91 1157.36,1040.12C1155.6,1046.3 1155.06,1052.44 1156.79,1057.26C1158.4,1062.08 1162.7,1065.92 1168.46,1068.52C1174.14,1071.22 1180.88,1072.54 1187.63,1073.58C1189.32,1073.86 1191.04,1074.06 1192.76,1074.23C1194.48,1074.44 1196.21,1074.59 1197.95,1074.69L1200.56,1074.88L1202.07,1075C1202.63,1075.06 1203.18,1075.09 1203.77,1075.23C1206.04,1075.65 1208.54,1076.71 1210.35,1078.63C1212.18,1080.53 1213.13,1082.96 1213.42,1085.16C1213.73,1087.38 1213.57,1089.48 1213.18,1091.45C1212.36,1095.37 1210.82,1098.91 1208.77,1102.07C1204.75,1108.36 1199.02,1113.63 1192.22,1116.09C1198.28,1112.24 1202.64,1106.45 1205.36,1100.25C1206.68,1097.13 1207.62,1093.87 1207.82,1090.73C1208.05,1087.61 1207.21,1084.62 1205.61,1083.58C1204.85,1083.02 1203.89,1082.67 1202.64,1082.59C1202.35,1082.54 1202.01,1082.57 1201.68,1082.57L1200.52,1082.6L1197.78,1082.7C1195.96,1082.79 1194.12,1082.82 1192.28,1082.79C1190.44,1082.8 1188.6,1082.78 1186.75,1082.67C1179.35,1082.3 1171.82,1081.35 1164.29,1078.57C1160.55,1077.18 1156.78,1075.31 1153.36,1072.53C1149.96,1069.77 1147.07,1065.98 1145.32,1061.75C1143.55,1057.53 1142.88,1053.05 1142.92,1048.84C1142.97,1044.62 1143.61,1040.63 1144.51,1036.81C1146.34,1029.18 1149.25,1022.26 1152.12,1015.61C1155.06,1009.02 1157.94,1002.7 1160.35,996.3C1162.81,989.94 1164.84,983.5 1165.81,977.23C1166.8,971 1166.65,964.88 1164.38,960.28C1162.18,955.7 1157.84,952.18 1152,950.06C1146.24,947.91 1139.6,946.83 1132.83,946.4C1118.52,945.59 1103.56,944.15 1089.58,938.18C1086.13,936.61 1082.74,934.68 1079.77,932.06C1076.81,929.49 1074.23,926.04 1073.36,921.99C1072.51,917.95 1073.41,913.85 1075.28,910.6C1077.19,907.36 1079.81,904.71 1082.76,902.68Z" style="fill:white;fill-rule:nonzero;"/>
                <path d="M1132.48,882.69C1135.79,881.41 1139.47,880.83 1143.2,881.33C1146.89,881.83 1150.7,883.75 1153.15,887.04C1155.67,890.28 1156.57,894.4 1156.79,898.24C1156.98,902.13 1156.43,905.91 1155.63,909.56C1152.02,924.13 1144.69,936.87 1136.88,948.94C1134.88,951.93 1132.9,954.95 1130.81,957.86L1127.66,962.22C1126.74,963.56 1125.73,964.88 1124.92,966.24C1123.21,968.92 1121.77,971.69 1120.96,974.25C1120.16,976.83 1120.08,979 1120.66,980.6C1121.55,983.78 1126.72,987.31 1132.65,989.72C1138.59,992.26 1145.21,994.31 1151.93,996.38C1165.31,1000.68 1179.54,1004.74 1192.6,1013.48C1199.01,1017.86 1205.19,1023.8 1208.77,1031.5C1212.44,1039.14 1213.16,1047.74 1212.04,1055.42C1209.9,1070.87 1202.22,1084.09 1194.88,1095.76C1193.26,1098.49 1192.03,1101.58 1192.31,1103.76C1192.45,1104.82 1192.93,1105.68 1194,1106.44C1195.06,1107.18 1196.55,1107.71 1198.12,1108.04C1201.3,1108.72 1204.81,1108.72 1208.28,1108.52C1211.77,1108.35 1215.27,1107.88 1218.77,1107.29C1212.16,1109.88 1205.29,1112.05 1197.64,1111.88C1195.73,1111.78 1193.7,1111.52 1191.67,1110.51C1189.65,1109.57 1187.71,1107.48 1187.05,1105.09C1186.37,1102.73 1186.51,1100.42 1186.93,1098.44C1187.1,1097.4 1187.43,1096.49 1187.69,1095.5L1188.71,1092.76L1191.02,1087.81C1191.76,1086.25 1192.53,1084.7 1193.18,1083.11C1194.57,1079.96 1195.83,1076.78 1196.93,1073.57C1199.08,1067.17 1200.89,1060.69 1201.18,1054.36C1201.56,1048.04 1200.46,1042.06 1197.76,1037.04C1195.03,1032.01 1190.61,1027.86 1185.28,1024.52C1179.95,1021.16 1173.88,1018.46 1167.51,1016.17C1161.16,1013.81 1154.53,1011.79 1147.76,1009.7C1141.01,1007.54 1134.1,1005.43 1127.09,1002.32C1123.6,1000.71 1120.04,998.92 1116.57,996.21C1114.84,994.89 1113.14,993.26 1111.6,991.36C1110.11,989.38 1108.78,987.09 1108.04,984.5C1106.5,979.3 1107.4,974.11 1108.87,970.06C1110.37,965.93 1112.52,962.54 1114.75,959.38C1115.85,957.76 1117.06,956.33 1118.23,954.83L1121.53,950.79C1123.77,948.13 1125.89,945.39 1128.02,942.66C1132.28,937.19 1136.17,931.5 1139.87,925.73C1143.53,919.95 1146.84,913.93 1149.08,907.66C1151.37,901.51 1152.71,894.62 1149.94,889.14C1148.57,886.44 1145.91,884.38 1142.73,883.36C1139.55,882.28 1135.98,882.18 1132.48,882.69Z" style="fill:white;fill-rule:nonzero;"/>
            </g>
        </g>
    </g>
</svg>
